<mxfile host="app.diagrams.net" agent="Mozilla/5.0 (Windows NT 10.0; Win64; x64) AppleWebKit/537.36 (KHTML, like Gecko) Chrome/132.0.0.0 Safari/537.36" version="26.0.14">
  <diagram name="Страница — 1" id="X0BV1AfV-Uk4AwNT3W-B">
    <mxGraphModel dx="2977" dy="928" grid="1" gridSize="10" guides="1" tooltips="1" connect="1" arrows="1" fold="1" page="1" pageScale="1" pageWidth="827" pageHeight="1169" math="0" shadow="0">
      <root>
        <mxCell id="0" />
        <mxCell id="1" parent="0" />
        <mxCell id="sl2dM86F75br77I2EdU_-8" value="Владелец" style="shape=umlActor;verticalLabelPosition=bottom;verticalAlign=top;html=1;outlineConnect=0;" vertex="1" parent="1">
          <mxGeometry x="70" y="200" width="30" height="60" as="geometry" />
        </mxCell>
        <mxCell id="sl2dM86F75br77I2EdU_-9" value="Закупщик" style="shape=umlActor;verticalLabelPosition=bottom;verticalAlign=top;html=1;outlineConnect=0;" vertex="1" parent="1">
          <mxGeometry x="10" y="370" width="30" height="60" as="geometry" />
        </mxCell>
        <mxCell id="sl2dM86F75br77I2EdU_-10" value="Читатель" style="shape=umlActor;verticalLabelPosition=bottom;verticalAlign=top;html=1;outlineConnect=0;" vertex="1" parent="1">
          <mxGeometry x="40" y="620" width="30" height="60" as="geometry" />
        </mxCell>
        <mxCell id="sl2dM86F75br77I2EdU_-11" value="Войти в систему" style="ellipse;whiteSpace=wrap;html=1;" vertex="1" parent="1">
          <mxGeometry x="270" y="380" width="110" height="60" as="geometry" />
        </mxCell>
        <mxCell id="sl2dM86F75br77I2EdU_-13" value="" style="endArrow=none;html=1;rounded=0;exitX=1;exitY=0.3333333333333333;exitDx=0;exitDy=0;exitPerimeter=0;entryX=0;entryY=0.5;entryDx=0;entryDy=0;" edge="1" parent="1" source="sl2dM86F75br77I2EdU_-8" target="sl2dM86F75br77I2EdU_-11">
          <mxGeometry width="50" height="50" relative="1" as="geometry">
            <mxPoint x="210" y="280" as="sourcePoint" />
            <mxPoint x="260" y="230" as="targetPoint" />
          </mxGeometry>
        </mxCell>
        <mxCell id="sl2dM86F75br77I2EdU_-14" value="" style="endArrow=none;html=1;rounded=0;exitX=1;exitY=0.3333333333333333;exitDx=0;exitDy=0;exitPerimeter=0;entryX=0;entryY=0.5;entryDx=0;entryDy=0;" edge="1" parent="1" source="sl2dM86F75br77I2EdU_-9" target="sl2dM86F75br77I2EdU_-11">
          <mxGeometry width="50" height="50" relative="1" as="geometry">
            <mxPoint x="160" y="370" as="sourcePoint" />
            <mxPoint x="210" y="320" as="targetPoint" />
          </mxGeometry>
        </mxCell>
        <mxCell id="sl2dM86F75br77I2EdU_-15" value="" style="endArrow=none;html=1;rounded=0;exitX=1;exitY=0.3333333333333333;exitDx=0;exitDy=0;exitPerimeter=0;entryX=0;entryY=0.5;entryDx=0;entryDy=0;" edge="1" parent="1" source="sl2dM86F75br77I2EdU_-10" target="sl2dM86F75br77I2EdU_-11">
          <mxGeometry width="50" height="50" relative="1" as="geometry">
            <mxPoint x="170" y="450" as="sourcePoint" />
            <mxPoint x="220" y="400" as="targetPoint" />
          </mxGeometry>
        </mxCell>
        <mxCell id="sl2dM86F75br77I2EdU_-20" value="Зарегистрироваться" style="ellipse;whiteSpace=wrap;html=1;" vertex="1" parent="1">
          <mxGeometry x="350" y="280" width="120" height="60" as="geometry" />
        </mxCell>
        <mxCell id="sl2dM86F75br77I2EdU_-27" value="Отслеживать посещаемость библиотеки" style="ellipse;whiteSpace=wrap;html=1;" vertex="1" parent="1">
          <mxGeometry x="-100.00000000000001" y="140" width="120" height="60" as="geometry" />
        </mxCell>
        <mxCell id="sl2dM86F75br77I2EdU_-29" value="" style="endArrow=none;html=1;rounded=0;exitX=0;exitY=0.3333333333333333;exitDx=0;exitDy=0;exitPerimeter=0;" edge="1" parent="1" source="sl2dM86F75br77I2EdU_-8" target="sl2dM86F75br77I2EdU_-27">
          <mxGeometry width="50" height="50" relative="1" as="geometry">
            <mxPoint x="140" y="230" as="sourcePoint" />
            <mxPoint x="190" y="180" as="targetPoint" />
          </mxGeometry>
        </mxCell>
        <mxCell id="sl2dM86F75br77I2EdU_-19" value="" style="html=1;endArrow=block;dashed=1;endFill=1;dashPattern=6 4;rounded=0;entryX=0.5;entryY=0;entryDx=0;entryDy=0;exitX=0.5;exitY=1;exitDx=0;exitDy=0;" edge="1" parent="1" source="sl2dM86F75br77I2EdU_-20" target="sl2dM86F75br77I2EdU_-11">
          <mxGeometry width="160" relative="1" as="geometry">
            <mxPoint x="275.77" y="210" as="sourcePoint" />
            <mxPoint x="400.77" y="160" as="targetPoint" />
          </mxGeometry>
        </mxCell>
        <mxCell id="sl2dM86F75br77I2EdU_-25" value="extend" style="text;html=1;align=center;verticalAlign=middle;whiteSpace=wrap;rounded=0;rotation=-20;" vertex="1" parent="1">
          <mxGeometry x="330" y="340" width="50" height="30" as="geometry" />
        </mxCell>
        <mxCell id="sl2dM86F75br77I2EdU_-30" value="Просматривать время обслуживания клиентов" style="ellipse;whiteSpace=wrap;html=1;" vertex="1" parent="1">
          <mxGeometry x="-40" y="50" width="150" height="60" as="geometry" />
        </mxCell>
        <mxCell id="sl2dM86F75br77I2EdU_-31" value="" style="endArrow=none;html=1;rounded=0;exitX=1;exitY=0.3333333333333333;exitDx=0;exitDy=0;exitPerimeter=0;" edge="1" parent="1" target="sl2dM86F75br77I2EdU_-30" source="sl2dM86F75br77I2EdU_-8">
          <mxGeometry width="50" height="50" relative="1" as="geometry">
            <mxPoint x="100" y="250" as="sourcePoint" />
            <mxPoint x="320" y="180" as="targetPoint" />
          </mxGeometry>
        </mxCell>
        <mxCell id="sl2dM86F75br77I2EdU_-34" value="Просматривать оценки клиентов за обслуживание" style="ellipse;whiteSpace=wrap;html=1;" vertex="1" parent="1">
          <mxGeometry x="120" y="30" width="160" height="60" as="geometry" />
        </mxCell>
        <mxCell id="sl2dM86F75br77I2EdU_-35" value="" style="endArrow=none;html=1;rounded=0;exitX=1;exitY=0.3333333333333333;exitDx=0;exitDy=0;exitPerimeter=0;" edge="1" parent="1" target="sl2dM86F75br77I2EdU_-34" source="sl2dM86F75br77I2EdU_-8">
          <mxGeometry width="50" height="50" relative="1" as="geometry">
            <mxPoint x="250" y="250" as="sourcePoint" />
            <mxPoint x="470" y="210" as="targetPoint" />
          </mxGeometry>
        </mxCell>
        <mxCell id="sl2dM86F75br77I2EdU_-36" value="Добавлять новые книги в БД библиотеки" style="ellipse;whiteSpace=wrap;html=1;" vertex="1" parent="1">
          <mxGeometry x="-250" y="460" width="160" height="60" as="geometry" />
        </mxCell>
        <mxCell id="sl2dM86F75br77I2EdU_-38" value="Получать отчеты о самых читаемых книгах и жанрах" style="ellipse;whiteSpace=wrap;html=1;" vertex="1" parent="1">
          <mxGeometry x="-240" y="360" width="160" height="60" as="geometry" />
        </mxCell>
        <mxCell id="sl2dM86F75br77I2EdU_-41" value="" style="endArrow=none;html=1;rounded=0;entryX=1;entryY=0;entryDx=0;entryDy=0;exitX=0;exitY=0.3333333333333333;exitDx=0;exitDy=0;exitPerimeter=0;" edge="1" parent="1" source="sl2dM86F75br77I2EdU_-9" target="sl2dM86F75br77I2EdU_-38">
          <mxGeometry width="50" height="50" relative="1" as="geometry">
            <mxPoint x="-50" y="410" as="sourcePoint" />
            <mxPoint x="100" y="320" as="targetPoint" />
          </mxGeometry>
        </mxCell>
        <mxCell id="sl2dM86F75br77I2EdU_-42" value="Заказывать книги" style="ellipse;whiteSpace=wrap;html=1;" vertex="1" parent="1">
          <mxGeometry x="-210" y="270" width="160" height="60" as="geometry" />
        </mxCell>
        <mxCell id="sl2dM86F75br77I2EdU_-44" value="" style="endArrow=none;html=1;rounded=0;entryX=1;entryY=0.5;entryDx=0;entryDy=0;exitX=0;exitY=0.3333333333333333;exitDx=0;exitDy=0;exitPerimeter=0;" edge="1" parent="1" source="sl2dM86F75br77I2EdU_-9" target="sl2dM86F75br77I2EdU_-42">
          <mxGeometry width="50" height="50" relative="1" as="geometry">
            <mxPoint x="-90" y="460" as="sourcePoint" />
            <mxPoint x="-40" y="410" as="targetPoint" />
          </mxGeometry>
        </mxCell>
        <mxCell id="sl2dM86F75br77I2EdU_-45" value="" style="endArrow=none;html=1;rounded=0;exitX=0;exitY=0.3333333333333333;exitDx=0;exitDy=0;exitPerimeter=0;entryX=0.5;entryY=0;entryDx=0;entryDy=0;" edge="1" parent="1" source="sl2dM86F75br77I2EdU_-9" target="sl2dM86F75br77I2EdU_-36">
          <mxGeometry width="50" height="50" relative="1" as="geometry">
            <mxPoint x="110" y="230" as="sourcePoint" />
            <mxPoint x="250" y="130" as="targetPoint" />
          </mxGeometry>
        </mxCell>
        <mxCell id="sl2dM86F75br77I2EdU_-46" value="Ставить оценки за обслуживание" style="ellipse;whiteSpace=wrap;html=1;" vertex="1" parent="1">
          <mxGeometry x="-290" y="590" width="160" height="60" as="geometry" />
        </mxCell>
        <mxCell id="sl2dM86F75br77I2EdU_-47" value="" style="endArrow=none;html=1;rounded=0;exitX=0;exitY=0.3333333333333333;exitDx=0;exitDy=0;exitPerimeter=0;entryX=1;entryY=0.5;entryDx=0;entryDy=0;" edge="1" parent="1" target="sl2dM86F75br77I2EdU_-46" source="sl2dM86F75br77I2EdU_-10">
          <mxGeometry width="50" height="50" relative="1" as="geometry">
            <mxPoint y="640" as="sourcePoint" />
            <mxPoint x="240" y="380" as="targetPoint" />
          </mxGeometry>
        </mxCell>
        <mxCell id="sl2dM86F75br77I2EdU_-48" value="Получать рекомендации по новым книгам" style="ellipse;whiteSpace=wrap;html=1;" vertex="1" parent="1">
          <mxGeometry x="-240" y="670" width="180" height="60" as="geometry" />
        </mxCell>
        <mxCell id="sl2dM86F75br77I2EdU_-50" value="" style="endArrow=none;html=1;rounded=0;entryX=0;entryY=0.3333333333333333;entryDx=0;entryDy=0;entryPerimeter=0;exitX=1;exitY=0.5;exitDx=0;exitDy=0;" edge="1" parent="1" source="sl2dM86F75br77I2EdU_-48" target="sl2dM86F75br77I2EdU_-10">
          <mxGeometry width="50" height="50" relative="1" as="geometry">
            <mxPoint x="-10" y="800" as="sourcePoint" />
            <mxPoint x="40" y="750" as="targetPoint" />
          </mxGeometry>
        </mxCell>
        <mxCell id="sl2dM86F75br77I2EdU_-51" value="Давать рекомендации по улучшению приложения" style="ellipse;whiteSpace=wrap;html=1;" vertex="1" parent="1">
          <mxGeometry x="-160" y="770" width="160" height="60" as="geometry" />
        </mxCell>
        <mxCell id="sl2dM86F75br77I2EdU_-52" value="" style="endArrow=none;html=1;rounded=0;exitX=0.5;exitY=0;exitDx=0;exitDy=0;entryX=0;entryY=0.3333333333333333;entryDx=0;entryDy=0;entryPerimeter=0;" edge="1" parent="1" source="sl2dM86F75br77I2EdU_-51" target="sl2dM86F75br77I2EdU_-10">
          <mxGeometry width="50" height="50" relative="1" as="geometry">
            <mxPoint x="-50" y="710" as="sourcePoint" />
            <mxPoint x="40" y="760" as="targetPoint" />
          </mxGeometry>
        </mxCell>
        <mxCell id="sl2dM86F75br77I2EdU_-53" value="Использовать поиск книг по разным критериям" style="ellipse;whiteSpace=wrap;html=1;" vertex="1" parent="1">
          <mxGeometry x="220" y="790" width="180" height="60" as="geometry" />
        </mxCell>
        <mxCell id="sl2dM86F75br77I2EdU_-54" value="" style="endArrow=none;html=1;rounded=0;entryX=1;entryY=0.3333333333333333;entryDx=0;entryDy=0;entryPerimeter=0;exitX=0;exitY=0;exitDx=0;exitDy=0;" edge="1" parent="1" source="sl2dM86F75br77I2EdU_-53" target="sl2dM86F75br77I2EdU_-10">
          <mxGeometry width="50" height="50" relative="1" as="geometry">
            <mxPoint x="160" y="710" as="sourcePoint" />
            <mxPoint x="70" y="600" as="targetPoint" />
          </mxGeometry>
        </mxCell>
        <mxCell id="sl2dM86F75br77I2EdU_-57" value="Проходить тесты для получения более точных рекомендаций" style="ellipse;whiteSpace=wrap;html=1;" vertex="1" parent="1">
          <mxGeometry x="-480" y="610" width="160" height="60" as="geometry" />
        </mxCell>
        <mxCell id="sl2dM86F75br77I2EdU_-58" value="" style="html=1;endArrow=block;dashed=1;endFill=1;dashPattern=6 4;rounded=0;entryX=0;entryY=0.5;entryDx=0;entryDy=0;exitX=0.5;exitY=1;exitDx=0;exitDy=0;" edge="1" parent="1" source="sl2dM86F75br77I2EdU_-57" target="sl2dM86F75br77I2EdU_-48">
          <mxGeometry width="160" relative="1" as="geometry">
            <mxPoint x="-469.23" y="530" as="sourcePoint" />
            <mxPoint x="-420" y="700" as="targetPoint" />
          </mxGeometry>
        </mxCell>
        <mxCell id="sl2dM86F75br77I2EdU_-59" value="extend" style="text;html=1;align=center;verticalAlign=middle;whiteSpace=wrap;rounded=0;rotation=10;" vertex="1" parent="1">
          <mxGeometry x="-330" y="660" width="50" height="30" as="geometry" />
        </mxCell>
        <mxCell id="sl2dM86F75br77I2EdU_-60" value="Оценивать книги" style="ellipse;whiteSpace=wrap;html=1;" vertex="1" parent="1">
          <mxGeometry x="170" y="555" width="180" height="60" as="geometry" />
        </mxCell>
        <mxCell id="sl2dM86F75br77I2EdU_-61" value="" style="endArrow=none;html=1;rounded=0;entryX=0;entryY=0.5;entryDx=0;entryDy=0;exitX=1;exitY=0.3333333333333333;exitDx=0;exitDy=0;exitPerimeter=0;" edge="1" parent="1" source="sl2dM86F75br77I2EdU_-10" target="sl2dM86F75br77I2EdU_-60">
          <mxGeometry width="50" height="50" relative="1" as="geometry">
            <mxPoint x="130" y="610" as="sourcePoint" />
            <mxPoint x="280" y="420" as="targetPoint" />
          </mxGeometry>
        </mxCell>
        <mxCell id="sl2dM86F75br77I2EdU_-62" value="Оставлять комментарии по книгам" style="ellipse;whiteSpace=wrap;html=1;" vertex="1" parent="1">
          <mxGeometry x="180" y="630" width="180" height="60" as="geometry" />
        </mxCell>
        <mxCell id="sl2dM86F75br77I2EdU_-63" value="" style="endArrow=none;html=1;rounded=0;exitX=0;exitY=0.5;exitDx=0;exitDy=0;entryX=1;entryY=0.3333333333333333;entryDx=0;entryDy=0;entryPerimeter=0;" edge="1" parent="1" source="sl2dM86F75br77I2EdU_-62" target="sl2dM86F75br77I2EdU_-10">
          <mxGeometry width="50" height="50" relative="1" as="geometry">
            <mxPoint x="116" y="779" as="sourcePoint" />
            <mxPoint x="120" y="640" as="targetPoint" />
          </mxGeometry>
        </mxCell>
        <mxCell id="sl2dM86F75br77I2EdU_-64" value="Просматривать оценки и комментарии по книгам других пользователей" style="ellipse;whiteSpace=wrap;html=1;" vertex="1" parent="1">
          <mxGeometry x="260" y="710" width="270" height="60" as="geometry" />
        </mxCell>
        <mxCell id="sl2dM86F75br77I2EdU_-65" value="" style="endArrow=none;html=1;rounded=0;exitX=0;exitY=0.5;exitDx=0;exitDy=0;entryX=1;entryY=0.3333333333333333;entryDx=0;entryDy=0;entryPerimeter=0;" edge="1" parent="1" source="sl2dM86F75br77I2EdU_-64" target="sl2dM86F75br77I2EdU_-10">
          <mxGeometry width="50" height="50" relative="1" as="geometry">
            <mxPoint x="190" y="670" as="sourcePoint" />
            <mxPoint x="120" y="680" as="targetPoint" />
          </mxGeometry>
        </mxCell>
        <mxCell id="sl2dM86F75br77I2EdU_-66" value="Бронировать книги" style="ellipse;whiteSpace=wrap;html=1;" vertex="1" parent="1">
          <mxGeometry x="-160" y="540" width="180" height="60" as="geometry" />
        </mxCell>
        <mxCell id="sl2dM86F75br77I2EdU_-67" value="" style="endArrow=none;html=1;rounded=0;entryX=0.5;entryY=1;entryDx=0;entryDy=0;exitX=0;exitY=0.3333333333333333;exitDx=0;exitDy=0;exitPerimeter=0;" edge="1" parent="1" source="sl2dM86F75br77I2EdU_-10" target="sl2dM86F75br77I2EdU_-66">
          <mxGeometry width="50" height="50" relative="1" as="geometry">
            <mxPoint x="70" y="590" as="sourcePoint" />
            <mxPoint x="-10" y="620" as="targetPoint" />
          </mxGeometry>
        </mxCell>
        <mxCell id="sl2dM86F75br77I2EdU_-68" value="Просматривать свою историю использования приложения" style="ellipse;whiteSpace=wrap;html=1;" vertex="1" parent="1">
          <mxGeometry x="10" y="790" width="180" height="60" as="geometry" />
        </mxCell>
        <mxCell id="sl2dM86F75br77I2EdU_-69" value="" style="endArrow=none;html=1;rounded=0;exitX=0.5;exitY=0;exitDx=0;exitDy=0;entryX=1;entryY=0.3333333333333333;entryDx=0;entryDy=0;entryPerimeter=0;" edge="1" parent="1" source="sl2dM86F75br77I2EdU_-68" target="sl2dM86F75br77I2EdU_-10">
          <mxGeometry width="50" height="50" relative="1" as="geometry">
            <mxPoint x="256" y="809" as="sourcePoint" />
            <mxPoint x="80" y="710" as="targetPoint" />
          </mxGeometry>
        </mxCell>
        <mxCell id="sl2dM86F75br77I2EdU_-70" value="" style="endArrow=block;startArrow=none;endFill=0;startFill=0;endSize=8;html=1;verticalAlign=bottom;dashed=0;labelBackgroundColor=none;rounded=0;entryX=0.5;entryY=0;entryDx=0;entryDy=0;entryPerimeter=0;" edge="1" parent="1" target="sl2dM86F75br77I2EdU_-9">
          <mxGeometry width="160" relative="1" as="geometry">
            <mxPoint x="85" y="280" as="sourcePoint" />
            <mxPoint x="170" y="328.33" as="targetPoint" />
          </mxGeometry>
        </mxCell>
        <mxCell id="sl2dM86F75br77I2EdU_-71" value="" style="endArrow=block;startArrow=none;endFill=0;startFill=0;endSize=8;html=1;verticalAlign=bottom;dashed=0;labelBackgroundColor=none;rounded=0;entryX=0.5;entryY=0;entryDx=0;entryDy=0;entryPerimeter=0;" edge="1" parent="1" target="sl2dM86F75br77I2EdU_-10">
          <mxGeometry width="160" relative="1" as="geometry">
            <mxPoint x="30" y="450" as="sourcePoint" />
            <mxPoint x="50" y="590" as="targetPoint" />
          </mxGeometry>
        </mxCell>
      </root>
    </mxGraphModel>
  </diagram>
</mxfile>
